<svg width="14" height="14" viewBox="0 0 14 14" fill="none" xmlns="http://www.w3.org/2000/svg">
	<path fill-rule="evenodd" clip-rule="evenodd"
		d="M13.6937 1.79261C14.1016 1.38476 14.0995 0.721486 13.6885 0.310486C13.2754 -0.102615 12.6142 -0.102615 12.2063 0.305231L7 5.51368L1.79261 0.305231C1.38476 -0.102615 0.721486 -0.100513 0.310486 0.310486C-0.102615 0.723588 -0.102615 1.38476 0.305231 1.79261L5.51368 7L0.306282 12.2074C-0.101564 12.6152 -0.0994619 13.2785 0.311538 13.6895C0.724639 14.1026 1.38581 14.1026 1.79366 13.6948L7 8.48633L12.2074 13.6937C12.6152 14.1016 13.2785 14.0995 13.6895 13.6885C14.1026 13.2754 14.1026 12.6142 13.6948 12.2063L8.48633 7L13.6937 1.79261Z"
		fill="white" />
</svg>
