<svg width="17" height="17" viewBox="0 0 17 17" fill="none" xmlns="http://www.w3.org/2000/svg">
	<path fill-rule="evenodd" clip-rule="evenodd"
		d="M8.5 6.16386L2.65858 0.322438C2.22805 -0.108095 1.53264 -0.106944 1.10302 0.32268L0.32268 1.10302C-0.105478 1.53118 -0.107052 2.22909 0.322438 2.65858L6.16386 8.5L0.322438 14.3414C-0.108095 14.7719 -0.106944 15.4674 0.32268 15.897L1.10302 16.6773C1.53118 17.1055 2.22909 17.1071 2.65858 16.6776L8.5 10.8361L14.3414 16.6776C14.7719 17.1081 15.4674 17.1069 15.897 16.6773L16.6773 15.897C17.1055 15.4688 17.1071 14.7709 16.6776 14.3414L10.8361 8.5L16.6776 2.65858C17.1081 2.22805 17.1069 1.53264 16.6773 1.10302L15.897 0.32268C15.4688 -0.105478 14.7709 -0.107052 14.3414 0.322438L8.5 6.16386Z"
		fill="#666666" />
</svg>
