<svg width="108" height="99" fill="none" xmlns="http://www.w3.org/2000/svg"><circle cx="58.68" cy="49.32" r="49.32" fill="#EDF1F6"/><path d="M61.22 10.897C75.24 11.95 81.535 22.874 83.533 30.2c.429 1.572 1.928 2.76 3.436 2.143 7.04-2.884 7.721-12.185 11.663-5.477 3.189 7.598-4.797 18.858-10.385 22.586-1.648 1.1-3.663 3.148-3.62 5.13.432 20.253 5.582 17.17 5.494 23.103-.094 6.294-8.93 5.78-10.476 4.415-1.424-1.259-4.221-7.323-6.002-12.054-.316-.84-.837-.765-.695.121.37 2.31 1.243 6.006 2.545 10.26.294.959-.15 2-1.078 2.382-14.9 6.125-32.024.683-32.926-.224-.934-.938-.69-10.128-.566-14.832-.079 2.794-1.989 13.897-4.301 14.347-2.9.564-8.605-1.503-9.447-3.757 3.854-12.3 4.493-19.166 4.573-25.79.014-1.122-.628-2.14-1.59-2.72-12.192-7.342-13.719-21.221-11.027-24.376 2.806-3.288 4.583.564 4.677 1.785.076.994 2.01 4.227 5.702 5.397 1.523.482 2.866-.83 3.25-2.382 1.999-8.05 10.701-20.693 28.46-19.36z" fill="#fff"/><circle cx="47.88" cy="37.08" r="3.24" fill="#D9E0ED"/><circle cx="65.52" cy="37.439" r="5.04" fill="#D9E0ED"/><path d="M47.886 47.52c-.379 0-.507.513-.175.697a9.937 9.937 0 004.823 1.252h.9a1 1 0 011 1v4.022c0 2.512 2.002 4.548 4.47 4.548s4.47-2.036 4.47-4.548v-3.66c0-.928.65-1.71 1.495-2.092.432-.195.849-.428 1.246-.697.23-.157.122-.523-.156-.523H47.885z" fill="#D9E0ED"/><circle cx="104.04" cy="12.6" r="3.96" fill="#EDF1F6"/><circle cx="4.68" cy="71.64" r="4.68" fill="#EDF1F6"/><circle cx="11.16" cy="14.759" r="3.24" fill="#EDF1F6"/><circle cx="105.84" cy="4.32" r="2.16" fill="#EDF1F6"/></svg>