<svg width="11" height="7" viewBox="0 0 11 7" fill="none" xmlns="http://www.w3.org/2000/svg">
<path fill-rule="evenodd" clip-rule="evenodd" d="M10.6243 2.33466C11.013 1.94596 11.013 1.31576 10.6243 0.927063C10.2356 0.538368 9.60543 0.538368 9.21674 0.927063L5.69788 4.44592L2.17841 0.926452C1.78971 0.537756 1.15951 0.537757 0.770813 0.926452C0.382118 1.31515 0.382117 1.94535 0.770813 2.33404L4.69364 6.25687C4.74168 6.39106 4.81944 6.517 4.92691 6.62448C5.23877 6.93633 5.70608 6.99798 6.0794 6.80943C6.20635 6.76098 6.32537 6.6856 6.42767 6.58331C6.49357 6.51741 6.54829 6.44456 6.59185 6.36713L10.6243 2.33466Z" fill="#999999"/>
</svg>

