<svg width="11" height="7" viewBox="0 0 11 7" fill="none" xmlns="http://www.w3.org/2000/svg">
	<path fill-rule="evenodd" clip-rule="evenodd"
		d="M10.6243 2.33441C11.013 1.94572 11.013 1.31551 10.6243 0.926819C10.2356 0.538123 9.60543 0.538124 9.21674 0.926819L5.69763 4.44592L2.17841 0.926696C1.78971 0.538 1.15951 0.538001 0.770813 0.926696C0.382118 1.31539 0.382117 1.94559 0.770813 2.33429L4.69391 6.25739C4.74197 6.39129 4.81964 6.51696 4.92691 6.62423C5.23766 6.93498 5.70277 6.9973 6.07543 6.81118C6.20386 6.76279 6.32431 6.68691 6.42767 6.58355C6.49388 6.51733 6.54882 6.44411 6.59248 6.36626L10.6243 2.33441Z"
		fill="#999999" />
</svg>
