<svg width="20" height="20" viewBox="0 0 20 20" fill="none" xmlns="http://www.w3.org/2000/svg">
	<path fill-rule="evenodd" clip-rule="evenodd"
		d="M10.5 0.25C10.7071 0.25 10.875 0.417893 10.875 0.625V8.875H19.125C19.3321 8.875 19.5 9.04289 19.5 9.25V10.75C19.5 10.9571 19.3321 11.125 19.125 11.125H10.875V19.375C10.875 19.5821 10.7071 19.75 10.5 19.75H9C8.79289 19.75 8.625 19.5821 8.625 19.375V11.125H0.375C0.167893 11.125 0 10.9571 0 10.75V9.25C0 9.04289 0.167893 8.875 0.375 8.875H8.625V0.625C8.625 0.417893 8.79289 0.25 9 0.25H10.5Z"
		fill="#999999" />
</svg>
